<svg width="26" height="26" viewBox="0 0 26 26" fill="none" xmlns="http://www.w3.org/2000/svg">
<g clip-path="url(#clip0_788_184)">
<rect width="26" height="26" rx="5" fill="#A10000"/>
<g clip-path="url(#clip1_788_184)">
<rect width="26" height="26" rx="5" fill="#A10000"/>
<path d="M9.20817 16.25C13.0972 16.25 16.2498 13.0974 16.2498 9.20835C16.2498 5.31935 13.0972 2.16669 9.20817 2.16669C5.31917 2.16669 2.1665 5.31935 2.1665 9.20835C2.1665 13.0974 5.31917 16.25 9.20817 16.25Z" fill="black"/>
<path d="M16.7917 16.25C20.6807 16.25 23.8333 13.0974 23.8333 9.20835C23.8333 5.31935 20.6807 2.16669 16.7917 2.16669C12.9027 2.16669 9.75 5.31935 9.75 9.20835C9.75 13.0974 12.9027 16.25 16.7917 16.25Z" fill="black"/>
<path d="M17.875 14.4836H6.5V17.705C6.49999 18.2741 6.61208 18.8376 6.82985 19.3634C7.04763 19.8891 7.36683 20.3669 7.76923 20.7693L10.1987 23.1987C10.605 23.6051 11.1561 23.8333 11.7308 23.8334H14.2692C14.8439 23.8333 15.395 23.6051 15.8013 23.1987L18.2308 20.7693C18.6332 20.3669 18.9524 19.8891 19.1701 19.3634C19.3879 18.8376 19.5 18.2741 19.5 17.705V14.4836H17.875Z" fill="#E3EDF0"/>
<path d="M18.7073 17.3333H7.29305C6.79544 17.3333 6.31821 17.1357 5.96635 16.7838C5.61449 16.4319 5.41682 15.9547 5.41682 15.4571C5.38905 14.9996 5.38905 14.5408 5.41682 14.0833C5.623 13.5521 5.79875 13.0096 5.94321 12.4584C5.7988 11.9072 5.62305 11.3646 5.41682 10.8333C5.39495 10.4726 5.39495 10.1108 5.41682 9.75C5.41682 8.02609 6.10164 6.37279 7.32063 5.15381C8.53961 3.93482 10.1929 3.25 11.9168 3.25H14.0835C15.8074 3.25 17.4607 3.93482 18.6797 5.15381C19.8987 6.37279 20.5835 8.02609 20.5835 9.75C20.6054 10.1108 20.6054 10.4726 20.5835 10.8333C20.3773 11.3646 20.2015 11.9072 20.0571 12.4584C20.2016 13.0096 20.3773 13.5521 20.5835 14.0833C20.6112 14.5408 20.6112 14.9996 20.5835 15.4571C20.5835 15.9547 20.3858 16.4319 20.034 16.7838C19.6821 17.1357 19.2049 17.3333 18.7073 17.3333Z" fill="#E3EDF0"/>
<path d="M9.74984 14.625C11.2456 14.625 12.4582 13.4124 12.4582 11.9166C12.4582 10.4209 11.2456 9.20831 9.74984 9.20831C8.25407 9.20831 7.0415 10.4209 7.0415 11.9166C7.0415 13.4124 8.25407 14.625 9.74984 14.625Z" fill="#4B5661"/>
<path d="M16.2498 14.625C17.7456 14.625 18.9582 13.4124 18.9582 11.9166C18.9582 10.4209 17.7456 9.20831 16.2498 9.20831C14.7541 9.20831 13.5415 10.4209 13.5415 11.9166C13.5415 13.4124 14.7541 14.625 16.2498 14.625Z" fill="#4B5661"/>
<path d="M16.25 12.7292C16.6987 12.7292 17.0625 12.3654 17.0625 11.9167C17.0625 11.468 16.6987 11.1042 16.25 11.1042C15.8013 11.1042 15.4375 11.468 15.4375 11.9167C15.4375 12.3654 15.8013 12.7292 16.25 12.7292Z" fill="white"/>
<path d="M9.75 12.7292C10.1987 12.7292 10.5625 12.3654 10.5625 11.9167C10.5625 11.468 10.1987 11.1042 9.75 11.1042C9.30127 11.1042 8.9375 11.468 8.9375 11.9167C8.9375 12.3654 9.30127 12.7292 9.75 12.7292Z" fill="white"/>
<path d="M15.1668 20.5833H10.8335C8.66683 20.5833 7.5835 18.4167 7.5835 16.25H18.4168C18.4168 18.4167 17.3335 20.5833 15.1668 20.5833Z" fill="black"/>
<path d="M10.8333 18.4167L9.75 16.25H11.9167L10.8333 18.4167Z" fill="white"/>
<path d="M12.9998 18.4167L11.9165 16.25H14.0832L12.9998 18.4167Z" fill="white"/>
<path d="M15.1668 18.4167L14.0835 16.25H16.2502L15.1668 18.4167Z" fill="white"/>
<path d="M14.0833 19.5L13 20.5833H15.1667L14.0833 19.5Z" fill="white"/>
<path d="M11.9168 19.5L10.8335 20.5833H13.0002L11.9168 19.5Z" fill="white"/>
<path d="M8.6665 9.75V7.58333C8.6665 7.29602 8.78064 7.02047 8.98381 6.8173C9.18697 6.61414 9.46252 6.5 9.74984 6.5C10.0372 6.5 10.3127 6.61414 10.5159 6.8173C10.719 7.02047 10.8332 7.29602 10.8332 7.58333V9.75H8.6665Z" fill="#4B5661"/>
<path d="M15.1665 9.75V7.58333C15.1665 7.29602 15.2806 7.02047 15.4838 6.8173C15.687 6.61414 15.9625 6.5 16.2498 6.5C16.5372 6.5 16.8127 6.61414 17.0159 6.8173C17.219 7.02047 17.3332 7.29602 17.3332 7.58333V9.75H15.1665Z" fill="#4B5661"/>
<path d="M13.0002 16.25C14.1968 16.25 15.1668 15.28 15.1668 14.0834C15.1668 12.8867 14.1968 11.9167 13.0002 11.9167C11.8035 11.9167 10.8335 12.8867 10.8335 14.0834C10.8335 15.28 11.8035 16.25 13.0002 16.25Z" fill="#FF3131"/>
</g>
</g>
<defs>
<clipPath id="clip0_788_184">
<rect width="26" height="26" fill="white"/>
</clipPath>
<clipPath id="clip1_788_184">
<rect width="26" height="26" fill="white"/>
</clipPath>
</defs>
</svg>
